<svg width="12" height="16" viewBox="0 0 12 16" fill="none" xmlns="http://www.w3.org/2000/svg">
<path d="M10.5 5.25H9.75V3.75C9.75 1.68 8.07 0 6 0C3.93 0 2.25 1.68 2.25 3.75V5.25H1.5C0.675 5.25 0 5.925 0 6.75V14.25C0 15.075 0.675 15.75 1.5 15.75H10.5C11.325 15.75 12 15.075 12 14.25V6.75C12 5.925 11.325 5.25 10.5 5.25ZM6 12C5.175 12 4.5 11.325 4.5 10.5C4.5 9.675 5.175 9 6 9C6.825 9 7.5 9.675 7.5 10.5C7.5 11.325 6.825 12 6 12ZM8.325 5.25H3.675V3.75C3.675 2.4675 4.7175 1.425 6 1.425C7.2825 1.425 8.325 2.4675 8.325 3.75V5.25Z" fill="#045D56"/>
</svg>
